<svg width="128" height="30" viewBox="0 0 128 30" fill="none" xmlns="http://www.w3.org/2000/svg">
<mask id="mask0_5630_66292" style="mask-type:alpha" maskUnits="userSpaceOnUse" x="0" y="0" width="56" height="31">
<path d="M0 0.00012207H55.5444V30.0001H0V0.00012207Z" fill="white"/>
</mask>
<g mask="url(#mask0_5630_66292)">
<path fill-rule="evenodd" clip-rule="evenodd" d="M39.0944 11.8346C35.6915 11.8346 32.9331 9.18523 32.9331 5.91696C32.9331 2.64869 35.6915 -0.000671387 39.0944 -0.000671387C42.4971 -0.000671387 45.2555 2.64869 45.2555 5.91696C45.2555 9.18523 42.4971 11.8346 39.0944 11.8346Z" fill="#EFD85B"/>
<path fill-rule="evenodd" clip-rule="evenodd" d="M16.4494 11.8346C13.0465 11.8346 10.2881 9.18523 10.2881 5.91696C10.2881 2.64869 13.0465 -0.000671387 16.4494 -0.000671387C19.8521 -0.000671387 22.6105 2.64869 22.6105 5.91696C22.6105 9.18523 19.8521 11.8346 16.4494 11.8346Z" fill="#398CDA"/>
<path fill-rule="evenodd" clip-rule="evenodd" d="M16.4499 30.0063C7.36521 30.0063 0 22.9323 0 14.2068H10.2878C10.2878 17.4751 13.0471 20.124 16.4499 20.124C19.8528 20.124 22.6107 17.4751 22.6107 14.2068H32.9H22.6444C22.6444 18.1287 24.1328 21.7179 26.5962 24.4803C26.9667 24.8957 27.3593 25.2925 27.7721 25.6688C24.8231 28.3572 20.8371 30.0063 16.4499 30.0063Z" fill="#398CDA"/>
<path fill-rule="evenodd" clip-rule="evenodd" d="M39.0945 30.0063C34.7074 30.0063 30.7214 28.3572 27.7722 25.6688C28.1851 25.2925 28.5776 24.8957 28.9481 24.4803C31.4115 21.7179 32.9001 18.1287 32.9001 14.2068H32.9337C32.9337 17.4751 35.6917 20.124 39.0945 20.124C42.4972 20.124 45.2565 17.4751 45.2565 14.2068H55.5445C55.5445 22.9323 48.1791 30.0063 39.0945 30.0063Z" fill="#EFD85B"/>
<path fill-rule="evenodd" clip-rule="evenodd" d="M27.7718 25.6688C27.359 25.2925 26.9664 24.8957 26.5959 24.4802C24.1325 21.7179 22.644 18.1287 22.644 14.2068H32.8997C32.8997 18.1287 31.4111 21.7179 28.9477 24.4802C28.5772 24.8957 28.1847 25.2925 27.7718 25.6688Z" fill="#2AAE85"/>
</g>
<path d="M62.3498 13.6649C62.1039 13.6649 61.9162 13.5969 61.7867 13.461C61.6573 13.3251 61.5926 13.1342 61.5926 12.8882V7.97587H59.8742C59.6736 7.97587 59.5182 7.92085 59.4082 7.81083C59.2982 7.7008 59.2432 7.5487 59.2432 7.35454C59.2432 7.1539 59.2982 7.00181 59.4082 6.89825C59.5182 6.78823 59.6736 6.73321 59.8742 6.73321H64.8157C65.0163 6.73321 65.1717 6.78823 65.2817 6.89825C65.3917 7.00181 65.4467 7.1539 65.4467 7.35454C65.4467 7.5487 65.3917 7.7008 65.2817 7.81083C65.1717 7.92085 65.0163 7.97587 64.8157 7.97587H63.0973V12.8882C63.0973 13.1342 63.0326 13.3251 62.9032 13.461C62.7802 13.5969 62.5957 13.6649 62.3498 13.6649ZM67.1176 13.6649C66.8717 13.6649 66.684 13.5969 66.5545 13.461C66.4251 13.3251 66.3604 13.1342 66.3604 12.8882V7.4225C66.3604 7.17656 66.4251 6.98563 66.5545 6.84971C66.684 6.7138 66.8717 6.64584 67.1176 6.64584C67.3571 6.64584 67.5415 6.7138 67.671 6.84971C67.8004 6.98563 67.8651 7.17656 67.8651 7.4225V9.48064H71.0494V7.4225C71.0494 7.17656 71.1142 6.98563 71.2436 6.84971C71.373 6.7138 71.5575 6.64584 71.797 6.64584C72.0429 6.64584 72.2306 6.7138 72.36 6.84971C72.4895 6.98563 72.5542 7.17656 72.5542 7.4225V12.8882C72.5542 13.1342 72.4895 13.3251 72.36 13.461C72.2306 13.5969 72.0429 13.6649 71.797 13.6649C71.5575 13.6649 71.373 13.5969 71.2436 13.461C71.1142 13.3251 71.0494 13.1342 71.0494 12.8882V10.733H67.8651V12.8882C67.8651 13.1342 67.8004 13.3251 67.671 13.461C67.548 13.5969 67.3635 13.6649 67.1176 13.6649ZM74.9574 13.6649C74.7115 13.6649 74.5238 13.5969 74.3944 13.461C74.2649 13.3251 74.2002 13.1342 74.2002 12.8882V7.4225C74.2002 7.17656 74.2649 6.98563 74.3944 6.84971C74.5238 6.7138 74.7115 6.64584 74.9574 6.64584C75.1969 6.64584 75.3814 6.7138 75.5108 6.84971C75.6403 6.98563 75.705 7.17656 75.705 7.4225V12.8882C75.705 13.1342 75.6403 13.3251 75.5108 13.461C75.3878 13.5969 75.2034 13.6649 74.9574 13.6649ZM78.1043 13.6649C77.8584 13.6649 77.6707 13.5969 77.5413 13.461C77.4118 13.3251 77.3471 13.1342 77.3471 12.8882V7.50016C77.3471 7.24775 77.4118 7.05682 77.5413 6.92738C77.6772 6.79793 77.8681 6.73321 78.1141 6.73321H80.4732C81.2369 6.73321 81.8258 6.91767 82.2401 7.28658C82.6543 7.65549 82.8614 8.17003 82.8614 8.83019C82.8614 9.25735 82.7675 9.62627 82.5798 9.93693C82.3921 10.2476 82.1203 10.4871 81.7643 10.6553C81.4149 10.8236 80.9845 10.9078 80.4732 10.9078L80.5508 10.7427H80.9489C81.2207 10.7427 81.4569 10.8107 81.6576 10.9466C81.8647 11.076 82.0426 11.2767 82.1915 11.5485L82.7934 12.6649C82.884 12.8267 82.9261 12.9853 82.9196 13.1406C82.9132 13.296 82.8549 13.4222 82.7449 13.5193C82.6349 13.6163 82.473 13.6649 82.2595 13.6649C82.0459 13.6649 81.8711 13.6196 81.7352 13.529C81.6058 13.4384 81.4893 13.2992 81.3857 13.1115L80.4537 11.3932C80.3567 11.2119 80.2369 11.089 80.0945 11.0243C79.9586 10.9595 79.7903 10.9272 79.5897 10.9272H78.8519V12.8882C78.8519 13.1342 78.7872 13.3251 78.6577 13.461C78.5347 13.5969 78.3503 13.6649 78.1043 13.6649ZM78.8519 9.83985H80.2013C80.6026 9.83985 80.9036 9.75894 81.1042 9.59714C81.3113 9.43534 81.4149 9.19263 81.4149 8.86902C81.4149 8.55189 81.3113 8.31242 81.1042 8.15061C80.9036 7.98881 80.6026 7.90791 80.2013 7.90791H78.8519V9.83985ZM85.158 13.5775C84.9056 13.5775 84.7114 13.5096 84.5755 13.3736C84.4396 13.2377 84.3716 13.0436 84.3716 12.7911V7.51958C84.3716 7.26717 84.4396 7.073 84.5755 6.93709C84.7114 6.80117 84.9056 6.73321 85.158 6.73321H87.0511C88.2225 6.73321 89.1254 7.03093 89.7597 7.62637C90.4004 8.21534 90.7208 9.05672 90.7208 10.1505C90.7208 10.7006 90.6366 11.1893 90.4684 11.6165C90.3066 12.0371 90.0703 12.3931 89.7597 12.6844C89.449 12.9756 89.0672 13.1989 88.6141 13.3542C88.1611 13.5031 87.64 13.5775 87.0511 13.5775H85.158ZM85.8764 12.3446H86.9637C87.3326 12.3446 87.653 12.2993 87.9248 12.2087C88.1966 12.118 88.4232 11.9821 88.6044 11.8009C88.7856 11.6197 88.9215 11.3932 89.0121 11.1213C89.1027 10.843 89.1481 10.5194 89.1481 10.1505C89.1481 9.41268 88.9636 8.86579 88.5947 8.50982C88.2322 8.14738 87.6886 7.96616 86.9637 7.96616H85.8764V12.3446ZM97.5773 13.6843C97.3055 13.6843 97.0272 13.6617 96.7424 13.6163C96.4641 13.5775 96.1955 13.5193 95.9366 13.4416C95.6842 13.3639 95.4577 13.2669 95.257 13.1504C95.1146 13.0727 95.0143 12.9724 94.9561 12.8494C94.8978 12.72 94.8752 12.5905 94.8881 12.4611C94.9075 12.3316 94.9561 12.2184 95.0337 12.1213C95.1179 12.0177 95.2214 11.953 95.3444 11.9271C95.4738 11.8948 95.6162 11.9174 95.7716 11.9951C96.0369 12.1439 96.3249 12.254 96.6356 12.3252C96.9527 12.3963 97.2666 12.4319 97.5773 12.4319C98.0498 12.4319 98.3863 12.3607 98.5869 12.2184C98.7876 12.0695 98.8879 11.885 98.8879 11.665C98.8879 11.4773 98.8167 11.3284 98.6743 11.2184C98.5319 11.1084 98.2828 11.0145 97.9268 10.9369L96.8298 10.7039C96.2084 10.5744 95.7457 10.3544 95.4415 10.0437C95.1438 9.72658 94.9949 9.31237 94.9949 8.80107C94.9949 8.47746 95.0629 8.18297 95.1988 7.91762C95.3347 7.65226 95.5256 7.4225 95.7716 7.22833C96.0175 7.03417 96.3087 6.88531 96.6453 6.78175C96.9883 6.6782 97.3637 6.62642 97.7715 6.62642C98.1339 6.62642 98.4899 6.67173 98.8394 6.76234C99.1889 6.84648 99.4963 6.97268 99.7616 7.14096C99.8911 7.21862 99.9785 7.31894 100.024 7.44191C100.076 7.55841 100.092 7.67815 100.072 7.80112C100.059 7.91762 100.011 8.02117 99.9267 8.11178C99.849 8.20239 99.7487 8.26064 99.6257 8.28653C99.5028 8.31242 99.3539 8.28329 99.1791 8.19916C98.9656 8.08913 98.739 8.00823 98.4996 7.95645C98.2601 7.90467 98.0142 7.87878 97.7617 7.87878C97.4899 7.87878 97.2569 7.91438 97.0628 7.98557C96.8751 8.05677 96.7294 8.15709 96.6259 8.28653C96.5288 8.41597 96.4803 8.56483 96.4803 8.73311C96.4803 8.9208 96.5482 9.0729 96.6841 9.18939C96.82 9.30589 97.0563 9.39974 97.3928 9.47093L98.4899 9.70393C99.1241 9.83985 99.5966 10.0599 99.9073 10.3641C100.218 10.6618 100.373 11.0566 100.373 11.5485C100.373 11.8721 100.309 12.1666 100.179 12.4319C100.05 12.6908 99.862 12.9141 99.616 13.1018C99.3701 13.2895 99.0756 13.4351 98.7326 13.5387C98.3895 13.6358 98.0044 13.6843 97.5773 13.6843ZM102.372 13.6649C102.126 13.6649 101.939 13.5969 101.809 13.461C101.68 13.3251 101.615 13.1342 101.615 12.8882V7.50016C101.615 7.24775 101.68 7.05682 101.809 6.92738C101.945 6.79793 102.136 6.73321 102.382 6.73321H104.741C105.505 6.73321 106.094 6.92738 106.508 7.31571C106.922 7.69756 107.129 8.23152 107.129 8.91756C107.129 9.60361 106.922 10.1408 106.508 10.5291C106.094 10.9175 105.505 11.1116 104.741 11.1116H103.12V12.8882C103.12 13.1342 103.055 13.3251 102.926 13.461C102.803 13.5969 102.618 13.6649 102.372 13.6649ZM103.12 9.94664H104.489C104.877 9.94664 105.171 9.85926 105.372 9.68451C105.579 9.50977 105.683 9.25412 105.683 8.91756C105.683 8.58101 105.579 8.3286 105.372 8.16032C105.171 7.99205 104.877 7.90791 104.489 7.90791H103.12V9.94664ZM107.8 13.6649C107.619 13.6649 107.47 13.6228 107.354 13.5387C107.244 13.4545 107.172 13.3413 107.14 13.1989C107.114 13.0565 107.143 12.8979 107.227 12.7232L109.713 7.27687C109.816 7.05682 109.939 6.89825 110.082 6.80117C110.224 6.69762 110.389 6.64584 110.577 6.64584C110.764 6.64584 110.929 6.69762 111.072 6.80117C111.214 6.89825 111.334 7.05682 111.431 7.27687L113.936 12.7232C114.02 12.8979 114.049 13.0597 114.023 13.2086C114.004 13.351 113.939 13.4643 113.829 13.5484C113.719 13.6261 113.577 13.6649 113.402 13.6649C113.182 13.6649 113.01 13.6131 112.887 13.5096C112.771 13.406 112.667 13.2442 112.577 13.0241L111.994 11.6747L112.596 12.0922H108.548L109.15 11.6747L108.577 13.0241C108.48 13.2507 108.376 13.4157 108.266 13.5193C108.163 13.6163 108.007 13.6649 107.8 13.6649ZM110.557 8.33507L109.315 11.2961L109.053 10.9175H112.091L111.829 11.2961L110.577 8.33507H110.557ZM118.339 13.6843C117.602 13.6843 116.971 13.5387 116.446 13.2474C115.922 12.9562 115.518 12.5484 115.233 12.0242C114.955 11.4935 114.815 10.8689 114.815 10.1505C114.815 9.61332 114.893 9.13115 115.048 8.70398C115.21 8.27035 115.443 7.90144 115.747 7.59724C116.052 7.28658 116.42 7.04711 116.854 6.87884C117.294 6.71056 117.789 6.62642 118.339 6.62642C118.663 6.62642 118.99 6.66849 119.32 6.75263C119.657 6.8303 119.948 6.94356 120.194 7.09242C120.356 7.18303 120.466 7.29629 120.524 7.43221C120.582 7.56812 120.598 7.70404 120.572 7.83995C120.553 7.97587 120.498 8.09236 120.407 8.18945C120.323 8.28653 120.216 8.34802 120.087 8.3739C119.957 8.39979 119.812 8.37067 119.65 8.28653C119.456 8.17003 119.252 8.08589 119.038 8.03412C118.825 7.98234 118.608 7.95645 118.388 7.95645C117.954 7.95645 117.589 8.04382 117.291 8.21857C117 8.38685 116.78 8.63279 116.631 8.9564C116.482 9.28001 116.408 9.67804 116.408 10.1505C116.408 10.6165 116.482 11.0145 116.631 11.3446C116.78 11.6747 117 11.9271 117.291 12.1019C117.589 12.2701 117.954 12.3543 118.388 12.3543C118.595 12.3543 118.805 12.3284 119.019 12.2766C119.239 12.2248 119.449 12.1439 119.65 12.0339C119.818 11.9498 119.967 11.9206 120.097 11.9465C120.233 11.9659 120.343 12.0242 120.427 12.1213C120.517 12.2119 120.572 12.3219 120.592 12.4514C120.618 12.5808 120.605 12.7102 120.553 12.8397C120.501 12.9691 120.404 13.0792 120.262 13.1698C120.022 13.3316 119.728 13.4578 119.378 13.5484C119.029 13.639 118.682 13.6843 118.339 13.6843ZM122.707 13.5775C122.454 13.5775 122.26 13.5096 122.124 13.3736C121.988 13.2377 121.92 13.0436 121.92 12.7911V7.51958C121.92 7.26717 121.988 7.073 122.124 6.93709C122.26 6.80117 122.454 6.73321 122.707 6.73321H126.095C126.289 6.73321 126.435 6.78499 126.532 6.88854C126.635 6.98563 126.687 7.12801 126.687 7.31571C126.687 7.50987 126.635 7.65873 126.532 7.76229C126.435 7.85937 126.289 7.90791 126.095 7.90791H123.357V9.50977H125.872C126.072 9.50977 126.221 9.56154 126.318 9.6651C126.422 9.76218 126.474 9.9078 126.474 10.102C126.474 10.2961 126.422 10.445 126.318 10.5485C126.221 10.6456 126.072 10.6942 125.872 10.6942H123.357V12.4028H126.095C126.289 12.4028 126.435 12.4546 126.532 12.5582C126.635 12.6552 126.687 12.7976 126.687 12.9853C126.687 13.1795 126.635 13.3283 126.532 13.4319C126.435 13.529 126.289 13.5775 126.095 13.5775H122.707Z" fill="#1B1B1F"/>
<path d="M69.511 24.0374C69.3815 24.0374 69.2812 24.0018 69.21 23.9306C69.1388 23.853 69.1032 23.7494 69.1032 23.62V17.562C69.1032 17.4261 69.1356 17.3226 69.2003 17.2514C69.2715 17.1802 69.3718 17.1446 69.5013 17.1446C69.6307 17.1446 69.7278 17.1802 69.7925 17.2514C69.8637 17.3226 69.8993 17.4261 69.8993 17.562V23.3384H73.0836C73.2001 23.3384 73.2907 23.3708 73.3554 23.4355C73.4202 23.4938 73.4525 23.5779 73.4525 23.6879C73.4525 23.7979 73.4202 23.8853 73.3554 23.95C73.2907 24.0083 73.2001 24.0374 73.0836 24.0374H69.511ZM75.0761 24.0374C74.9337 24.0374 74.8237 24.0018 74.7461 23.9306C74.6749 23.853 74.6393 23.7429 74.6393 23.6005V17.63C74.6393 17.4876 74.6749 17.3808 74.7461 17.3096C74.8237 17.2319 74.9337 17.1931 75.0761 17.1931H78.6876C78.7976 17.1931 78.8818 17.2222 78.94 17.2805C78.9983 17.3387 79.0274 17.4196 79.0274 17.5232C79.0274 17.6332 78.9983 17.7174 78.94 17.7756C78.8818 17.8339 78.7976 17.863 78.6876 17.863H75.4159V20.2318H78.4837C78.5938 20.2318 78.6779 20.2609 78.7361 20.3192C78.7944 20.3709 78.8235 20.4518 78.8235 20.5619C78.8235 20.6719 78.7944 20.756 78.7361 20.8143C78.6779 20.8725 78.5938 20.9017 78.4837 20.9017H75.4159V23.3675H78.6876C78.7976 23.3675 78.8818 23.3967 78.94 23.4549C78.9983 23.5132 79.0274 23.5941 79.0274 23.6976C79.0274 23.8077 78.9983 23.8918 78.94 23.95C78.8818 24.0083 78.7976 24.0374 78.6876 24.0374H75.0761ZM80.2857 24.1054C80.1821 24.1054 80.098 24.0827 80.0332 24.0374C79.975 23.9856 79.9394 23.9209 79.9265 23.8432C79.92 23.7591 79.9394 23.6653 79.9847 23.5617L82.6545 17.4844C82.7127 17.3549 82.7807 17.2643 82.8583 17.2125C82.9425 17.1543 83.0331 17.1252 83.1302 17.1252C83.2272 17.1252 83.3146 17.1543 83.3923 17.2125C83.4764 17.2643 83.5444 17.3549 83.5962 17.4844L86.2756 23.5617C86.3274 23.6653 86.3468 23.7591 86.3339 23.8432C86.3274 23.9274 86.295 23.9921 86.2368 24.0374C86.1786 24.0827 86.0976 24.1054 85.9941 24.1054C85.8776 24.1054 85.7837 24.0762 85.7126 24.018C85.6414 23.9533 85.5831 23.8627 85.5378 23.7462L84.8194 22.0861L85.2077 22.2899H81.0332L81.4312 22.0861L80.7225 23.7462C80.6643 23.8691 80.6028 23.9597 80.5381 24.018C80.4733 24.0762 80.3892 24.1054 80.2857 24.1054ZM83.1205 18.1251L81.5574 21.8045L81.3244 21.6201H84.9165L84.7029 21.8045L83.1399 18.1251H83.1205ZM88.1667 24.1054C88.0372 24.1054 87.9369 24.0698 87.8657 23.9986C87.801 23.9209 87.7686 23.8174 87.7686 23.6879V17.6009C87.7686 17.4649 87.8042 17.3646 87.8754 17.2999C87.9466 17.2287 88.0469 17.1931 88.1764 17.1931H90.4772C91.2086 17.1931 91.7717 17.3646 92.1665 17.7076C92.5613 18.0507 92.7587 18.5393 92.7587 19.1736C92.7587 19.5749 92.6681 19.9244 92.4868 20.2221C92.3121 20.5133 92.0532 20.7366 91.7102 20.8919C91.3672 21.0408 90.9562 21.1152 90.4772 21.1152L90.5743 20.989H90.7685C91.0209 20.989 91.241 21.0538 91.4286 21.1832C91.6163 21.3126 91.7879 21.5197 91.9432 21.8045L92.8752 23.5423C92.927 23.6329 92.9496 23.7235 92.9431 23.8141C92.9431 23.8983 92.914 23.9695 92.8558 24.0277C92.7975 24.0795 92.7134 24.1054 92.6033 24.1054C92.4933 24.1054 92.4027 24.0795 92.3315 24.0277C92.2603 23.9759 92.1988 23.9015 92.1471 23.8044L91.0889 21.8434C90.94 21.5651 90.7685 21.3806 90.5743 21.29C90.3802 21.1929 90.1245 21.1444 89.8074 21.1444H88.5647V23.6879C88.5647 23.8174 88.5324 23.9209 88.4676 23.9986C88.4029 24.0698 88.3026 24.1054 88.1667 24.1054ZM88.5647 20.5133H90.3607C90.8915 20.5133 91.2927 20.4033 91.5646 20.1832C91.8364 19.9567 91.9723 19.6202 91.9723 19.1736C91.9723 18.74 91.8364 18.4131 91.5646 18.1931C91.2927 17.9665 90.8915 17.8533 90.3607 17.8533H88.5647V20.5133ZM94.9063 24.1054C94.7833 24.1054 94.6895 24.073 94.6248 24.0083C94.5601 23.9371 94.5277 23.8368 94.5277 23.7073V17.5329C94.5277 17.4035 94.5601 17.3031 94.6248 17.2319C94.6895 17.1608 94.7736 17.1252 94.8772 17.1252C94.9807 17.1252 95.0552 17.1446 95.1005 17.1834C95.1523 17.2158 95.2105 17.2773 95.2752 17.3679L99.508 23.0083H99.275V17.5135C99.275 17.3905 99.3074 17.2967 99.3721 17.2319C99.4368 17.1608 99.5307 17.1252 99.6536 17.1252C99.7701 17.1252 99.8575 17.1608 99.9158 17.2319C99.9805 17.2967 100.013 17.3905 100.013 17.5135V23.717C100.013 23.84 99.9837 23.9371 99.9255 24.0083C99.8737 24.073 99.796 24.1054 99.6925 24.1054C99.5954 24.1054 99.5177 24.086 99.4595 24.0471C99.4012 24.0083 99.3397 23.9468 99.275 23.8627L95.0519 18.2222H95.2752V23.7073C95.2752 23.8368 95.2429 23.9371 95.1781 24.0083C95.1134 24.073 95.0228 24.1054 94.9063 24.1054ZM102.377 24.1054C102.247 24.1054 102.147 24.0698 102.076 23.9986C102.011 23.9209 101.979 23.8174 101.979 23.6879V17.5426C101.979 17.4067 102.011 17.3031 102.076 17.2319C102.147 17.1608 102.247 17.1252 102.377 17.1252C102.506 17.1252 102.603 17.1608 102.668 17.2319C102.739 17.3031 102.775 17.4067 102.775 17.5426V23.6879C102.775 23.8174 102.743 23.9209 102.678 23.9986C102.613 24.0698 102.513 24.1054 102.377 24.1054ZM105.116 24.1054C104.993 24.1054 104.899 24.073 104.834 24.0083C104.769 23.9371 104.737 23.8368 104.737 23.7073V17.5329C104.737 17.4035 104.769 17.3031 104.834 17.2319C104.899 17.1608 104.983 17.1252 105.087 17.1252C105.19 17.1252 105.264 17.1446 105.31 17.1834C105.362 17.2158 105.42 17.2773 105.485 17.3679L109.717 23.0083H109.484V17.5135C109.484 17.3905 109.517 17.2967 109.581 17.2319C109.646 17.1608 109.74 17.1252 109.863 17.1252C109.979 17.1252 110.067 17.1608 110.125 17.2319C110.19 17.2967 110.222 17.3905 110.222 17.5135V23.717C110.222 23.84 110.193 23.9371 110.135 24.0083C110.083 24.073 110.005 24.1054 109.902 24.1054C109.805 24.1054 109.727 24.086 109.669 24.0471C109.611 24.0083 109.549 23.9468 109.484 23.8627L105.261 18.2222H105.485V23.7073C105.485 23.8368 105.452 23.9371 105.387 24.0083C105.323 24.073 105.232 24.1054 105.116 24.1054ZM115.314 24.1248C114.583 24.1248 113.965 23.9856 113.46 23.7073C112.962 23.429 112.583 23.0278 112.324 22.5035C112.065 21.9793 111.936 21.3515 111.936 20.6201C111.936 20.0765 112.007 19.5878 112.149 19.1542C112.298 18.7205 112.512 18.3549 112.79 18.0571C113.075 17.753 113.418 17.52 113.819 17.3582C114.227 17.1899 114.686 17.1057 115.198 17.1057C115.605 17.1057 116 17.164 116.382 17.2805C116.764 17.3905 117.104 17.5685 117.401 17.8144C117.479 17.8727 117.528 17.9374 117.547 18.0086C117.567 18.0798 117.563 18.151 117.537 18.2222C117.518 18.2934 117.482 18.3549 117.431 18.4066C117.385 18.4519 117.324 18.4778 117.246 18.4843C117.175 18.4908 117.101 18.4681 117.023 18.4163C116.757 18.2092 116.476 18.0604 116.178 17.9698C115.881 17.8727 115.55 17.8241 115.188 17.8241C114.67 17.8241 114.23 17.9342 113.868 18.1542C113.512 18.3743 113.24 18.6914 113.052 19.1056C112.871 19.5199 112.78 20.0247 112.78 20.6201C112.78 21.5262 112.991 22.2187 113.411 22.6977C113.839 23.1766 114.479 23.4161 115.334 23.4161C115.644 23.4161 115.948 23.387 116.246 23.3287C116.544 23.264 116.825 23.1766 117.091 23.0666L116.916 23.5229V21.1055H115.528C115.411 21.1055 115.324 21.0764 115.266 21.0182C115.207 20.9599 115.178 20.8822 115.178 20.7852C115.178 20.6816 115.207 20.6039 115.266 20.5522C115.324 20.5004 115.411 20.4745 115.528 20.4745H117.266C117.376 20.4745 117.46 20.5036 117.518 20.5619C117.576 20.6201 117.605 20.7043 117.605 20.8143V23.3481C117.605 23.4452 117.589 23.5261 117.557 23.5908C117.524 23.6556 117.469 23.7041 117.392 23.7365C117.12 23.8465 116.793 23.9403 116.411 24.018C116.036 24.0892 115.67 24.1248 115.314 24.1248Z" fill="#1B1B1F"/>
</svg>
